<svg width="402" height="402" xmlns="http://www.w3.org/2000/svg" preserveAspectRatio="xMidYMid meet" version="1.0">

 <g>
  <title>Layer 1</title>
  <g id="svg_1" stroke="#8886CDFF" fill="#8886CDFF">
   <path fill="#ffffff" id="svg_2" d="m85.611,45.695c-4.44,2.256 -4.784,2.691 -4.25,5.361c0.491,2.455 0.043,3.334 -2.89,5.674c-1.909,1.524 -3.471,3.502 -3.471,4.398c0,2.078 2.578,4.251 4,3.372c0.598,-0.37 2.23,0.076 3.625,0.99c1.395,0.914 3.178,1.416 3.963,1.115c2.454,-0.942 1.148,8.191 -1.429,9.997c-2.95,2.066 -4.749,8.428 -3.201,11.32c0.991,1.852 0.881,2.495 -0.671,3.898c-4.471,4.042 -6.154,7.225 -5.606,10.601c0.436,2.689 -0.154,4.36 -3.07,8.691c-1.986,2.949 -3.611,6.544 -3.611,7.99c0,3.008 3.45,7.898 5.573,7.898c1.884,0 1.8,2.782 -0.196,6.5c-0.886,1.65 -2.22,5.24 -2.964,7.977c-1.32,4.861 -1.29,5.042 1.287,7.731c2.289,2.39 2.489,3.083 1.509,5.233c-0.621,1.363 -1.437,4.859 -1.813,7.769c-0.858,6.642 -0.829,6.491 -2.151,11.29c-4.661,16.915 -6.157,38.271 -3.889,55.5c1.183,8.99 1.369,10.591 2.093,18c0.949,9.712 1.415,11.69 5.061,21.5c3.393,9.132 8.856,20.178 10.879,22c0.611,0.55 2.214,3.025 3.561,5.5c1.348,2.475 2.817,4.95 3.264,5.5c1.818,2.233 5.786,8.638 5.786,9.339c0,1.361 17.956,19.012 20,19.661c1.1,0.349 2,0.993 2,1.431c0,0.439 1.913,2.094 4.25,3.68c2.338,1.586 4.475,3.11 4.75,3.386c0.275,0.277 2.525,1.582 5,2.902c2.475,1.319 5.175,2.898 6,3.508c5.449,4.033 17.408,8.262 28.315,10.016c12.909,2.074 21.904,1.97 34.685,-0.402c21.84,-4.054 35.696,-8.794 51.217,-17.523c4.399,-2.474 8.18,-4.498 8.401,-4.498c0.221,0 2.643,-1.575 5.382,-3.5c2.739,-1.925 5.209,-3.5 5.49,-3.5c0.28,0 1.337,-0.787 2.348,-1.75c1.011,-0.962 4.448,-4 7.638,-6.75c3.19,-2.75 8.306,-8.15 11.37,-12c3.064,-3.85 5.926,-7.15 6.362,-7.333c0.436,-0.184 0.792,-0.737 0.792,-1.231c0,-0.493 1.516,-3.268 3.369,-6.167c3.308,-5.173 5.745,-10.826 11.107,-25.769c4.624,-12.884 5.893,-17.318 8.157,-28.5c2.545,-12.567 2.591,-13.1 2.573,-30c-0.016,-14.716 -0.368,-20.682 -1.532,-26c-1.748,-7.981 -1.812,-10.51 -0.282,-11.097c0.862,-0.331 2.506,-2.12 3.653,-3.976c2.36,-3.818 2.06,-8.905 -1.058,-17.927c-0.95,-2.75 -3.554,-10.303 -5.785,-16.785c-2.231,-6.481 -4.948,-13.681 -6.037,-16c-1.735,-3.694 -2.864,-6.717 -3.815,-10.215c-1.602,-5.898 -2.131,-9.046 -1.649,-9.825c0.317,-0.514 -0.048,-0.73 -0.812,-0.48c-0.764,0.251 -1.839,1.806 -2.389,3.458c-0.55,1.652 -2.184,4.79 -3.632,6.975c-7.191,10.854 -14.849,33.493 -15.177,44.872c-0.246,8.528 5.003,19.5 9.329,19.5c0.941,0 2.986,1.003 4.545,2.229c2.909,2.289 8.708,2.895 13.033,1.361c1.839,-0.652 2.238,-0.207 3.22,3.583c3.304,12.753 3.193,45.02 -0.203,59.327c-0.13,0.55 -0.521,1.9 -0.868,3c-0.347,1.1 -0.863,3.575 -1.147,5.5c-0.806,5.471 -8.666,27.788 -13.276,37.699c-1.484,3.19 -4.735,8.726 -7.223,12.301c-5.825,8.368 -20.193,22.93 -26.547,26.905c-2.72,1.702 -4.52,3.104 -4,3.115c2.154,0.047 -26.889,14.658 -34.917,17.567c-6.756,2.448 -17.817,5.409 -22.637,6.059c-2.475,0.334 -4.725,0.903 -5,1.266c-0.675,0.89 -11.8,1.631 -21,1.399c-9.858,-0.249 -23.801,-2.746 -28.638,-5.129c-2.124,-1.047 -5.212,-2.531 -6.862,-3.299c-10.732,-4.992 -29.02,-18.289 -37.858,-27.525c-5.531,-5.781 -5.323,-5.505 -12.411,-16.358c-3.412,-5.225 -6.611,-9.991 -7.109,-10.591c-1.679,-2.026 -7.664,-13.869 -9.808,-19.409c-3.469,-8.961 -5.166,-16.03 -5.786,-24.096c-0.321,-4.178 -0.745,-8.453 -0.942,-9.5c-3.195,-16.979 -3.102,-30.136 0.338,-47.404c1.151,-5.775 2.531,-13.2 3.069,-16.5c1.741,-10.689 5.191,-20.481 8.044,-22.83c4.996,-4.114 16.508,-12.164 31.963,-22.351c20.903,-13.777 21.176,-13.971 29.345,-20.803c13.478,-11.272 17.746,-16.156 18.588,-21.269l0.617,-3.747l15.475,0.354c8.511,0.194 15.794,0.547 16.184,0.783c0.39,0.237 3.54,0.669 7,0.96c8.22,0.693 22.839,3.975 29.886,6.709c3.942,1.529 6.506,3.356 8.678,6.182c6.058,7.883 18.345,19.512 20.616,19.512c0.288,0 2.68,1.246 5.317,2.769c6.113,3.532 17.729,8.231 20.345,8.231c1.107,0 2.263,-0.787 2.571,-1.75c0.308,-0.962 1.071,-2.813 1.697,-4.112c0.997,-2.067 0.798,-2.633 -1.59,-4.537c-1.501,-1.197 -2.729,-2.469 -2.729,-2.827c0,-0.358 1.92,-0.939 4.266,-1.291c3.458,-0.519 4.735,-1.336 6.736,-4.312c1.358,-2.019 2.531,-4.543 2.606,-5.609c0.075,-1.065 1.183,-2.784 2.461,-3.819c1.939,-1.57 2.084,-2.044 0.878,-2.857c-1.15,-0.775 -1.037,-0.918 0.553,-0.698c2.203,0.306 9.572,-2.842 10.735,-4.586c1.285,-1.929 0.824,-6.021 -1.085,-9.617c-1.745,-3.288 -1.755,-3.655 -0.174,-6.485c0.921,-1.65 2.616,-3.139 3.765,-3.308c5.449,-0.805 2.873,-7.063 -5.584,-13.571c-6.316,-4.861 -9.796,-6.2 -12.143,-4.676c-1.217,0.79 -1.278,1.516 -0.337,4.01c1.117,2.96 1.067,3.045 -1.764,3.045c-1.87,0 -2.913,0.516 -2.913,1.441c0,2.452 -1.707,2.69 -7.858,1.096c-8.341,-2.162 -16.382,-2.035 -18.487,0.292c-0.91,1.006 -1.655,2.581 -1.655,3.5c0,1.09 -0.822,1.671 -2.365,1.671c-1.301,0 -3.438,0.801 -4.75,1.779c-1.642,1.225 -3.922,1.722 -7.315,1.595c-2.969,-0.111 -5.834,0.408 -7.201,1.304c-1.319,0.864 -3.141,1.212 -4.348,0.829c-2.621,-0.832 -8.021,4.588 -8.021,8.051c0,2.315 -0.057,2.327 -4.25,0.936c-12.199,-4.047 -23.695,-5.182 -54.969,-5.426c-7.254,-0.057 -8.623,-0.316 -8.152,-1.543c0.876,-2.284 -3.448,-8.442 -6.46,-9.197c-1.466,-0.368 -6.501,-0.185 -11.189,0.406c-10.863,1.371 -13.822,0.888 -13.238,-2.163c0.466,-2.439 -2.274,-5.978 -3.866,-4.994c-0.53,0.327 -1.599,0.068 -2.376,-0.577c-0.777,-0.645 -1.897,-0.873 -2.489,-0.507c-0.593,0.367 -2.673,0.864 -4.622,1.106c-1.95,0.242 -5.14,1.106 -7.089,1.92c-4.636,1.937 -4.491,2.016 -3.732,-2.03c0.896,-4.776 -0.739,-6.489 -6.19,-6.489c-4.178,0 -4.378,-0.134 -4.378,-2.941c0,-1.618 -0.503,-3.252 -1.118,-3.632c-2.688,-1.661 -8.623,-1.094 -13.271,1.268m69.381,36.055c-0.015,1.314 -25.304,23.28 -32.992,28.657c-6.6,4.615 -23.5,14.391 -25.487,14.742c-1.777,0.314 -1.724,0.103 0.5,-2.001c1.368,-1.293 6.302,-4.85 10.964,-7.905c4.662,-3.055 8.981,-6.047 9.597,-6.649c2.333,-2.281 14.622,-12.958 17.217,-14.96c1.49,-1.149 4.637,-3.899 6.994,-6.112c4.994,-4.688 13.235,-8.289 13.207,-5.772m-24.121,-20.212c0.703,0.703 -0.821,3.506 -2.098,3.86c-0.7,0.193 -3.659,0.785 -6.575,1.314c-4.765,0.865 -5.406,0.768 -6.331,-0.96c-1.304,-2.438 -0.933,-2.77 4.867,-4.356c4.131,-1.129 8.934,-1.062 10.137,0.142m28.737,10.035c0.86,3.43 -0.572,4.629 -5.068,4.245c-3.125,-0.267 -3.943,-0.841 -5.084,-3.568l-1.359,-3.25l5.432,0c5.002,0 5.484,0.204 6.079,2.573m125.194,-8.196c0.556,0.344 0.764,1.566 0.463,2.717c-0.454,1.738 -1.072,1.99 -3.656,1.491c-1.71,-0.33 -5.021,-0.881 -7.359,-1.223c-3.967,-0.581 -5.262,-1.987 -3.5,-3.801c0.828,-0.852 12.444,-0.177 14.052,0.816m-38.466,13.799c0.315,1.204 -0.192,3.55 -1.134,5.25c-0.936,1.691 -1.75,3.197 -1.809,3.348c-0.466,1.193 -3.457,-1.519 -4.281,-3.882c-1.607,-4.61 -0.281,-6.399 5.021,-6.776c0.899,-0.064 1.89,0.863 2.203,2.06m-148.131,37.442c-0.885,1.403 -9.205,5.457 -9.205,4.485c0,-1.68 9.007,-10.198 12.111,-11.454l3.389,-1.372l-2.795,3.612c-1.537,1.986 -3.112,4.114 -3.5,4.729m174.39,-6.618c0.773,0 1.405,0.45 1.405,1c0,0.55 -0.239,1 -0.532,1c-1.191,0 -12.195,-3.991 -15.278,-5.541c-3.244,-1.632 -8.19,-5.682 -8.19,-6.707c0,-0.285 4.768,1.904 10.595,4.865c5.827,2.96 11.227,5.383 12,5.383m-180.343,-7c-0.503,0 -2.373,2.25 -4.155,5c-2.422,3.738 -3.853,5 -5.668,5c-3.334,0 -3.053,-1.32 1.222,-5.732c3.78,-3.9 8.6,-6.583 9.182,-5.11c0.184,0.463 -0.078,0.842 -0.581,0.842m-11.079,38.013c-4.542,8.502 -6.966,7.645 -3.515,-1.243c2.388,-6.149 3.345,-7.196 5.033,-5.508c1.149,1.15 0.913,2.203 -1.518,6.751m62.827,-64.54c0,1.156 -4.137,2.527 -7.625,2.527c-2.073,0 -1.731,-4.775 0.375,-5.237c2.526,-0.554 7.25,1.212 7.25,2.71m-64.341,41.295c1.709,1.088 0.446,6.235 -1.526,6.217c-3.394,-0.032 -4.612,-1.638 -3.348,-4.413c1.18,-2.59 2.735,-3.165 4.874,-1.804m17.726,-37.539c-1.587,1.226 -4.235,3.474 -5.885,4.996c-1.65,1.521 -3.337,2.768 -3.75,2.77c-2.495,0.016 1.883,-6.964 4.41,-7.03c0.737,-0.02 2.465,-0.679 3.84,-1.465c3.822,-2.185 4.615,-1.767 1.385,0.729m157.615,8.868l3.5,3.043l-4,-0.648c-4.676,-0.757 -5.995,-1.759 -5.164,-3.925c0.836,-2.178 1.653,-1.958 5.664,1.53m-125.015,-11.347c-0.049,2.402 -4.918,5.29 -8.8,5.22c-1.405,-0.026 -1.353,-0.221 0.315,-1.173c1.1,-0.629 2.588,-1.965 3.307,-2.97c1.267,-1.771 5.209,-2.591 5.178,-1.077m155.015,11.795c4.494,1.763 8.377,4.411 7.602,5.186c-0.225,0.225 -3.49,-1.264 -7.256,-3.31c-9.866,-5.36 -9.916,-5.629 -0.346,-1.876m23.393,-6.963c0.334,0.87 0.607,2.529 0.607,3.687c0,1.969 -0.194,1.919 -3.002,-0.771c-2.192,-2.1 -2.665,-3.092 -1.75,-3.672c1.961,-1.245 3.484,-0.967 4.145,0.756m-35.786,10.479c2.943,1.684 5.632,3.517 5.976,4.074c0.674,1.09 -7.752,-2.939 -8.583,-4.105c-0.275,-0.385 -1.4,-1.211 -2.5,-1.835c-1.1,-0.624 -1.605,-1.148 -1.122,-1.165c0.483,-0.016 3.286,1.348 6.229,3.031m-166.795,-34.322c-0.184,0.956 -1.082,1.882 -1.995,2.058c-1.238,0.238 -1.523,-0.204 -1.122,-1.739c0.655,-2.506 3.596,-2.807 3.117,-0.319m-1.371,41.966c-1.342,1.212 -2.441,1.777 -2.441,1.256c0,-0.522 1.913,-2.245 4.25,-3.831c2.338,-1.585 3.436,-2.15 2.441,-1.256c-0.995,0.894 -2.907,2.618 -4.25,3.831m-13.9,36.259c-1.628,1.073 -3.17,1.74 -3.427,1.483c-0.696,-0.695 3.152,-3.379 4.886,-3.409c0.825,-0.013 0.168,0.853 -1.459,1.926m200.459,-68.023c0,1.18 -1.95,2.442 -2.667,1.726c-0.716,-0.717 0.546,-2.667 1.726,-2.667c0.518,0 0.941,0.423 0.941,0.941"/>
  </g>
  <g id="svg_3" stroke="#8886CDFF" fill="#8886CDFF">
   <path fill="#ffffff" id="svg_4" d="m276.747,222.443c-0.961,0.703 -1.747,2.029 -1.747,2.949c0,0.919 -0.562,1.85 -1.25,2.07c-4.094,1.308 -79.321,2.162 -89.371,1.015c-21.072,-2.405 -50.807,-2.02 -52.476,0.68c-0.345,0.558 -0.914,0.975 -1.265,0.928c-3.346,-0.447 -3.638,0.026 -3.638,5.911c0,3.298 0.856,8.585 1.902,11.75c1.046,3.165 2.874,10.029 4.063,15.254c1.188,5.225 3.229,11.75 4.535,14.5c1.306,2.75 3.075,6.575 3.933,8.5c4.07,9.143 10.219,16.289 18.067,20.997c2.2,1.32 5.575,3.605 7.5,5.078c3.173,2.428 9.363,4.592 16,5.593c18.758,2.832 28.783,2.663 44.5,-0.747c10.175,-2.208 12.118,-3.004 18.634,-7.631c2.549,-1.809 5.028,-3.29 5.51,-3.29c1.193,0 9.26,-7.908 11.222,-11c0.872,-1.375 2.096,-2.824 2.718,-3.22c1.864,-1.186 10.342,-21.115 11.435,-26.879c0.558,-2.944 0.964,-8.514 0.902,-12.377c-0.067,-4.16 0.693,-10.082 1.864,-14.524c2.877,-10.908 1.343,-18.761 -3.038,-15.557m-5.382,38.057c-0.36,3.85 -1.489,8.568 -2.509,10.485c-1.021,1.917 -1.856,4.041 -1.856,4.719c0,3.364 -7.335,14.667 -13.413,20.67c-4.226,4.174 -15.981,11.555 -19.535,12.266c-1.678,0.335 -3.052,0.976 -3.052,1.423c0,0.447 -0.787,0.799 -1.75,0.782c-0.962,-0.017 -4.9,0.456 -8.75,1.051c-13.586,2.102 -31.618,1.397 -40.95,-1.6c-2.723,-0.874 -6.998,-2.867 -9.5,-4.429c-2.503,-1.562 -5.675,-3.407 -7.05,-4.1c-1.375,-0.693 -4.81,-3.512 -7.632,-6.264c-5.909,-5.76 -13.39,-20.472 -15.889,-31.251c-0.827,-3.566 -1.823,-6.994 -2.213,-7.618c-0.39,-0.624 -0.791,-1.584 -0.891,-2.134c-0.1,-0.55 -0.498,-1.787 -0.885,-2.75c-0.424,-1.054 -0.251,-1.75 0.434,-1.75c0.627,0 1.386,0.644 1.688,1.43c0.403,1.051 2.185,1.391 6.718,1.279c3.394,-0.083 9.361,0.386 13.262,1.044c6.956,1.172 60.783,2.819 87.408,2.673c14.462,-0.078 18.839,-1.271 23.474,-6.396l1.975,-2.183l0.784,2.826c0.432,1.555 0.491,5.977 0.132,9.827m-92.115,-28.037c2.063,0.295 5.438,0.829 7.5,1.185c2.063,0.357 21.832,0.714 43.932,0.794l40.182,0.146l-1.789,3.956c-2.332,5.158 -6.36,9.065 -10.884,10.558c-4.285,1.414 -63.796,0.65 -97.273,-1.249c-19.25,-1.092 -20.759,-1.319 -23.297,-3.502c-2.026,-1.744 -2.861,-3.58 -3.296,-7.256c-0.543,-4.586 -0.421,-4.957 1.796,-5.44c2.833,-0.616 37.754,0.038 43.129,0.808"/>
  </g>
  <g id="svg_5" stroke="#8886CDFF" fill="#8886CDFF">
   <path fill="#ffffff" id="svg_6" d="m247.03,161.128c-3.502,2.13 -6.94,5.721 -6.997,7.308c-0.018,0.514 -0.971,1.933 -2.117,3.153c-1.145,1.22 -2.556,3.949 -3.134,6.064c-1.609,5.892 -2.128,16.401 -0.872,17.657c0.599,0.599 1.09,1.845 1.09,2.768c0,0.922 0.678,2.24 1.507,2.928c1.27,1.054 1.679,0.758 2.598,-1.878c0.6,-1.72 1.466,-3.128 1.925,-3.128c0.46,0 1.103,-0.845 1.431,-1.878c1.633,-5.143 9.99,-11.112 15.566,-11.118c4.379,-0.005 7.079,1.837 10.958,7.474c1.66,2.414 3.87,4.659 4.91,4.989c1.039,0.33 2.437,1.92 3.105,3.533c3.139,7.578 6.995,5.554 7.008,-3.679c0.005,-3.201 -0.741,-8.971 -1.657,-12.821c-0.917,-3.85 -2.069,-8.711 -2.561,-10.803c-0.493,-2.091 -1.734,-4.641 -2.759,-5.666c-1.026,-1.026 -1.661,-2.068 -1.412,-2.317c0.249,-0.249 -1.251,-1.299 -3.333,-2.333c-5.734,-2.849 -20.741,-2.999 -25.256,-0.253"/>
  </g>
  <g id="svg_7" stroke="#8886CDFF" fill="#8886CDFF">
   <path fill="#ffffff" id="svg_8" d="m155,160.658c-7.864,2.11 -12.214,6.67 -18.202,19.079c-5.176,10.726 -7.285,20.226 -4.828,21.744c1.67,1.032 6.03,-1.446 6.03,-3.427c0,-2.161 4.671,-7.146 10.002,-10.674c3.898,-2.579 5.194,-2.879 12.425,-2.87c11.332,0.015 15.948,2.467 17.155,9.113c0.336,1.854 3.602,8.373 4.459,8.902c1.205,0.745 3.959,-2.412 3.959,-4.537c0,-1.029 0.503,-2.181 1.118,-2.561c1.5,-0.927 0.73,-6.537 -2.502,-18.24c-2.379,-8.611 -5.801,-12.855 -13.015,-16.141c-5.188,-2.363 -8.917,-2.45 -16.601,-0.388"/>
  </g>
 </g>
</svg>