<?xml version="1.0" encoding="utf-8"?>
<!DOCTYPE svg PUBLIC "-//W3C//DTD SVG 20010904//EN" "http://www.w3.org/TR/2001/REC-SVG-20010904/DTD/svg10.dtd">
<svg version="1.0" xmlns="http://www.w3.org/2000/svg" width="402pt" height="402pt" viewBox="0 0 402 402" style="" preserveAspectRatio="xMidYMid meet">
<g fill="#8886CDFF" stroke="#8886CDFF">
<path d="M 85.611 45.695 C 81.171 47.951 80.827 48.386 81.361 51.056 C 81.852 53.511 81.404 54.390 78.471 56.730 C 76.562 58.254 75.000 60.232 75.000 61.128 C 75.000 63.206 77.578 65.379 79.000 64.500 C 79.598 64.130 81.230 64.576 82.625 65.490 C 84.020 66.404 85.803 66.906 86.588 66.605 C 89.042 65.663 87.736 74.796 85.159 76.602 C 82.209 78.668 80.410 85.030 81.958 87.922 C 82.949 89.774 82.839 90.417 81.287 91.820 C 76.816 95.862 75.133 99.045 75.681 102.421 C 76.117 105.110 75.527 106.781 72.611 111.112 C 70.625 114.061 69.000 117.656 69.000 119.102 C 69.000 122.110 72.450 127.000 74.573 127.000 C 76.457 127.000 76.373 129.782 74.377 133.500 C 73.491 135.150 72.157 138.740 71.413 141.477 C 70.093 146.338 70.123 146.519 72.700 149.208 C 74.989 151.598 75.189 152.291 74.209 154.441 C 73.588 155.804 72.772 159.300 72.396 162.210 C 71.538 168.852 71.567 168.701 70.245 173.500 C 65.584 190.415 64.088 211.771 66.356 229.000 C 67.539 237.990 67.725 239.591 68.449 247.000 C 69.398 256.712 69.864 258.690 73.510 268.500 C 76.903 277.632 82.366 288.678 84.389 290.500 C 85.000 291.050 86.603 293.525 87.950 296.000 C 89.298 298.475 90.767 300.950 91.214 301.500 C 93.032 303.733 97.000 310.138 97.000 310.839 C 97.000 312.200 114.956 329.851 117.000 330.500 C 118.100 330.849 119.000 331.493 119.000 331.931 C 119.000 332.370 120.913 334.025 123.250 335.611 C 125.588 337.197 127.725 338.721 128.000 338.997 C 128.275 339.274 130.525 340.579 133.000 341.899 C 135.475 343.218 138.175 344.797 139.000 345.407 C 144.449 349.440 156.408 353.669 167.315 355.423 C 180.224 357.497 189.219 357.393 202.000 355.021 C 223.840 350.967 237.696 346.227 253.217 337.498 C 257.616 335.024 261.397 333.000 261.618 333.000 C 261.839 333.000 264.261 331.425 267.000 329.500 C 269.739 327.575 272.209 326.000 272.490 326.000 C 272.770 326.000 273.827 325.213 274.838 324.250 C 275.849 323.288 279.286 320.250 282.476 317.500 C 285.666 314.750 290.782 309.350 293.846 305.500 C 296.910 301.650 299.772 298.350 300.208 298.167 C 300.644 297.983 301.000 297.430 301.000 296.936 C 301.000 296.443 302.516 293.668 304.369 290.769 C 307.677 285.596 310.114 279.943 315.476 265.000 C 320.100 252.116 321.369 247.682 323.633 236.500 C 326.178 223.933 326.224 223.400 326.206 206.500 C 326.190 191.784 325.838 185.818 324.674 180.500 C 322.926 172.519 322.862 169.990 324.392 169.403 C 325.254 169.072 326.898 167.283 328.045 165.427 C 330.405 161.609 330.105 156.522 326.987 147.500 C 326.037 144.750 323.433 137.197 321.202 130.715 C 318.971 124.234 316.254 117.034 315.165 114.715 C 313.430 111.021 312.301 107.998 311.350 104.500 C 309.748 98.602 309.219 95.454 309.701 94.675 C 310.018 94.161 309.653 93.945 308.889 94.195 C 308.125 94.446 307.050 96.001 306.500 97.653 C 305.950 99.305 304.316 102.443 302.868 104.628 C 295.677 115.482 288.019 138.121 287.691 149.500 C 287.445 158.028 292.694 169.000 297.020 169.000 C 297.961 169.000 300.006 170.003 301.565 171.229 C 304.474 173.518 310.273 174.124 314.598 172.590 C 316.437 171.938 316.836 172.383 317.818 176.173 C 321.122 188.926 321.011 221.193 317.615 235.500 C 317.485 236.050 317.094 237.400 316.747 238.500 C 316.400 239.600 315.884 242.075 315.600 244.000 C 314.794 249.471 306.934 271.788 302.324 281.699 C 300.840 284.889 297.589 290.425 295.101 294.000 C 289.276 302.368 274.908 316.930 268.554 320.905 C 265.834 322.607 264.034 324.009 264.554 324.020 C 266.708 324.067 237.665 338.678 229.637 341.587 C 222.881 344.035 211.820 346.996 207.000 347.646 C 204.525 347.980 202.275 348.549 202.000 348.912 C 201.325 349.802 190.200 350.543 181.000 350.311 C 171.142 350.062 157.199 347.565 152.362 345.182 C 150.238 344.135 147.150 342.651 145.500 341.883 C 134.768 336.891 116.480 323.594 107.642 314.358 C 102.111 308.577 102.319 308.853 95.231 298.000 C 91.819 292.775 88.620 288.009 88.122 287.409 C 86.443 285.383 80.458 273.540 78.314 268.000 C 74.845 259.039 73.148 251.970 72.528 243.904 C 72.207 239.726 71.783 235.451 71.586 234.404 C 68.391 217.425 68.484 204.268 71.924 187.000 C 73.075 181.225 74.455 173.800 74.993 170.500 C 76.734 159.811 80.184 150.019 83.037 147.670 C 88.033 143.556 99.545 135.506 115.000 125.319 C 135.903 111.542 136.176 111.348 144.345 104.516 C 157.823 93.244 162.091 88.360 162.933 83.247 L 163.550 79.500 179.025 79.854 C 187.536 80.048 194.819 80.401 195.209 80.637 C 195.599 80.874 198.749 81.306 202.209 81.597 C 210.429 82.290 225.048 85.572 232.095 88.306 C 236.037 89.835 238.601 91.662 240.773 94.488 C 246.831 102.371 259.118 114.000 261.389 114.000 C 261.677 114.000 264.069 115.246 266.706 116.769 C 272.819 120.301 284.435 125.000 287.051 125.000 C 288.158 125.000 289.314 124.213 289.622 123.250 C 289.930 122.288 290.693 120.437 291.319 119.138 C 292.316 117.071 292.117 116.505 289.729 114.601 C 288.228 113.404 287.000 112.132 287.000 111.774 C 287.000 111.416 288.920 110.835 291.266 110.483 C 294.724 109.964 296.001 109.147 298.002 106.171 C 299.360 104.152 300.533 101.628 300.608 100.562 C 300.683 99.497 301.791 97.778 303.069 96.743 C 305.008 95.173 305.153 94.699 303.947 93.886 C 302.797 93.111 302.910 92.968 304.500 93.188 C 306.703 93.494 314.072 90.346 315.235 88.602 C 316.520 86.673 316.059 82.581 314.150 78.985 C 312.405 75.697 312.395 75.330 313.976 72.500 C 314.897 70.850 316.592 69.361 317.741 69.192 C 323.190 68.387 320.614 62.129 312.157 55.621 C 305.841 50.760 302.361 49.421 300.014 50.945 C 298.797 51.735 298.736 52.461 299.677 54.955 C 300.794 57.915 300.744 58.000 297.913 58.000 C 296.043 58.000 295.000 58.516 295.000 59.441 C 295.000 61.893 293.293 62.131 287.142 60.537 C 278.801 58.375 270.760 58.502 268.655 60.829 C 267.745 61.835 267.000 63.410 267.000 64.329 C 267.000 65.419 266.178 66.000 264.635 66.000 C 263.334 66.000 261.197 66.801 259.885 67.779 C 258.243 69.004 255.963 69.501 252.570 69.374 C 249.601 69.263 246.736 69.782 245.369 70.678 C 244.050 71.542 242.228 71.890 241.021 71.507 C 238.400 70.675 233.000 76.095 233.000 79.558 C 233.000 81.873 232.943 81.885 228.750 80.494 C 216.551 76.447 205.055 75.312 173.781 75.068 C 166.527 75.011 165.158 74.752 165.629 73.525 C 166.505 71.241 162.181 65.083 159.169 64.328 C 157.703 63.960 152.668 64.143 147.980 64.734 C 137.117 66.105 134.158 65.622 134.742 62.571 C 135.208 60.132 132.468 56.593 130.876 57.577 C 130.346 57.904 129.277 57.645 128.500 57.000 C 127.723 56.355 126.603 56.127 126.011 56.493 C 125.418 56.860 123.338 57.357 121.389 57.599 C 119.439 57.841 116.249 58.705 114.300 59.519 C 109.664 61.456 109.809 61.535 110.568 57.489 C 111.464 52.713 109.829 51.000 104.378 51.000 C 100.200 51.000 100.000 50.866 100.000 48.059 C 100.000 46.441 99.497 44.807 98.882 44.427 C 96.194 42.766 90.259 43.333 85.611 45.695 M 154.992 81.750 C 154.977 83.064 129.688 105.030 122.000 110.407 C 115.400 115.022 98.500 124.798 96.513 125.149 C 94.736 125.463 94.789 125.252 97.013 123.148 C 98.381 121.855 103.315 118.298 107.977 115.243 C 112.639 112.188 116.958 109.196 117.574 108.594 C 119.907 106.313 132.196 95.636 134.791 93.634 C 136.281 92.485 139.428 89.735 141.785 87.522 C 146.779 82.834 155.020 79.233 154.992 81.750 M 130.871 61.538 C 131.574 62.241 130.050 65.044 128.773 65.398 C 128.073 65.591 125.114 66.183 122.198 66.712 C 117.433 67.577 116.792 67.480 115.867 65.752 C 114.563 63.314 114.934 62.982 120.734 61.396 C 124.865 60.267 129.668 60.334 130.871 61.538 M 159.608 71.573 C 160.468 75.003 159.036 76.202 154.540 75.818 C 151.415 75.551 150.597 74.977 149.456 72.250 L 148.097 69.000 153.529 69.000 C 158.531 69.000 159.013 69.204 159.608 71.573 M 284.802 63.377 C 285.358 63.721 285.566 64.943 285.265 66.094 C 284.811 67.832 284.193 68.084 281.609 67.585 C 279.899 67.255 276.588 66.704 274.250 66.362 C 270.283 65.781 268.988 64.375 270.750 62.561 C 271.578 61.709 283.194 62.384 284.802 63.377 M 246.336 77.176 C 246.651 78.380 246.144 80.726 245.202 82.426 C 244.266 84.117 243.452 85.623 243.393 85.774 C 242.927 86.967 239.936 84.255 239.112 81.892 C 237.505 77.282 238.831 75.493 244.133 75.116 C 245.032 75.052 246.023 75.979 246.336 77.176 M 98.205 114.618 C 97.320 116.021 89.000 120.075 89.000 119.103 C 89.000 117.423 98.007 108.905 101.111 107.649 L 104.500 106.277 101.705 109.889 C 100.168 111.875 98.593 114.003 98.205 114.618 M 272.595 108.000 C 273.368 108.000 274.000 108.450 274.000 109.000 C 274.000 109.550 273.761 110.000 273.468 110.000 C 272.277 110.000 261.273 106.009 258.190 104.459 C 254.946 102.827 250.000 98.777 250.000 97.752 C 250.000 97.467 254.768 99.656 260.595 102.617 C 266.422 105.577 271.822 108.000 272.595 108.000 M 92.252 101.000 C 91.749 101.000 89.879 103.250 88.097 106.000 C 85.675 109.738 84.244 111.000 82.429 111.000 C 79.095 111.000 79.376 109.680 83.651 105.268 C 87.431 101.368 92.251 98.685 92.833 100.158 C 93.017 100.621 92.755 101.000 92.252 101.000 M 81.173 139.013 C 76.631 147.515 74.207 146.658 77.658 137.770 C 80.046 131.621 81.003 130.574 82.691 132.262 C 83.840 133.412 83.604 134.465 81.173 139.013 M 144.000 74.473 C 144.000 75.629 139.863 77.000 136.375 77.000 C 134.302 77.000 134.644 72.225 136.750 71.763 C 139.276 71.209 144.000 72.975 144.000 74.473 M 79.659 115.768 C 81.368 116.856 80.105 122.003 78.133 121.985 C 74.739 121.953 73.521 120.347 74.785 117.572 C 75.965 114.982 77.520 114.407 79.659 115.768 M 97.385 78.229 C 95.798 79.455 93.150 81.703 91.500 83.225 C 89.850 84.746 88.163 85.993 87.750 85.995 C 85.255 86.011 89.633 79.031 92.160 78.965 C 92.897 78.945 94.625 78.286 96.000 77.500 C 99.822 75.315 100.615 75.733 97.385 78.229 M 255.000 87.097 L 258.500 90.140 254.500 89.492 C 249.824 88.735 248.505 87.733 249.336 85.567 C 250.172 83.389 250.989 83.609 255.000 87.097 M 129.985 75.750 C 129.936 78.152 125.067 81.040 121.185 80.970 C 119.780 80.944 119.832 80.749 121.500 79.797 C 122.600 79.168 124.088 77.832 124.807 76.827 C 126.074 75.056 130.016 74.236 129.985 75.750 M 285.000 87.545 C 289.494 89.308 293.377 91.956 292.602 92.731 C 292.377 92.956 289.112 91.467 285.346 89.421 C 275.480 84.061 275.430 83.792 285.000 87.545 M 308.393 80.582 C 308.727 81.452 309.000 83.111 309.000 84.269 C 309.000 86.238 308.806 86.188 305.998 83.498 C 303.806 81.398 303.333 80.406 304.248 79.826 C 306.209 78.581 307.732 78.859 308.393 80.582 M 272.607 91.061 C 275.550 92.745 278.239 94.578 278.583 95.135 C 279.257 96.225 270.831 92.196 270.000 91.030 C 269.725 90.645 268.600 89.819 267.500 89.195 C 266.400 88.571 265.895 88.047 266.378 88.030 C 266.861 88.014 269.664 89.378 272.607 91.061 M 105.812 56.739 C 105.628 57.695 104.730 58.621 103.817 58.797 C 102.579 59.035 102.294 58.593 102.695 57.058 C 103.350 54.552 106.291 54.251 105.812 56.739 M 104.441 98.705 C 103.099 99.917 102.000 100.482 102.000 99.961 C 102.000 99.439 103.913 97.716 106.250 96.130 C 108.588 94.545 109.686 93.980 108.691 94.874 C 107.696 95.768 105.784 97.492 104.441 98.705 M 90.541 134.964 C 88.913 136.037 87.371 136.704 87.114 136.447 C 86.418 135.752 90.266 133.068 92.000 133.038 C 92.825 133.025 92.168 133.891 90.541 134.964 M 291.000 66.941 C 291.000 68.121 289.050 69.383 288.333 68.667 C 287.617 67.950 288.879 66.000 290.059 66.000 C 290.577 66.000 291.000 66.423 291.000 66.941 "/></g>
<g fill="#8886CDFF" stroke="#8886CDFF">
<path d="M 276.747 222.443 C 275.786 223.146 275.000 224.472 275.000 225.392 C 275.000 226.311 274.438 227.242 273.750 227.462 C 269.656 228.770 194.429 229.624 184.379 228.477 C 163.307 226.072 133.572 226.457 131.903 229.157 C 131.558 229.715 130.989 230.132 130.638 230.085 C 127.292 229.638 127.000 230.111 127.000 235.996 C 127.000 239.294 127.856 244.581 128.902 247.746 C 129.948 250.911 131.776 257.775 132.965 263.000 C 134.153 268.225 136.194 274.750 137.500 277.500 C 138.806 280.250 140.575 284.075 141.433 286.000 C 145.503 295.143 151.652 302.289 159.500 306.997 C 161.700 308.317 165.075 310.602 167.000 312.075 C 170.173 314.503 176.363 316.667 183.000 317.668 C 201.758 320.500 211.783 320.331 227.500 316.921 C 237.675 314.713 239.618 313.917 246.134 309.290 C 248.683 307.481 251.162 306.000 251.644 306.000 C 252.837 306.000 260.904 298.092 262.866 295.000 C 263.738 293.625 264.962 292.176 265.584 291.780 C 267.448 290.594 275.926 270.665 277.019 264.901 C 277.577 261.957 277.983 256.387 277.921 252.524 C 277.854 248.364 278.614 242.442 279.785 238.000 C 282.662 227.092 281.128 219.239 276.747 222.443 M 271.365 260.500 C 271.005 264.350 269.876 269.068 268.856 270.985 C 267.835 272.902 267.000 275.026 267.000 275.704 C 267.000 279.068 259.665 290.371 253.587 296.374 C 249.361 300.548 237.606 307.929 234.052 308.640 C 232.374 308.975 231.000 309.616 231.000 310.063 C 231.000 310.510 230.213 310.862 229.250 310.845 C 228.288 310.828 224.350 311.301 220.500 311.896 C 206.914 313.998 188.882 313.293 179.550 310.296 C 176.827 309.422 172.552 307.429 170.050 305.867 C 167.547 304.305 164.375 302.460 163.000 301.767 C 161.625 301.074 158.190 298.255 155.368 295.503 C 149.459 289.743 141.978 275.031 139.479 264.252 C 138.652 260.686 137.656 257.258 137.266 256.634 C 136.876 256.010 136.475 255.050 136.375 254.500 C 136.275 253.950 135.877 252.713 135.490 251.750 C 135.066 250.696 135.239 250.000 135.924 250.000 C 136.551 250.000 137.310 250.644 137.612 251.430 C 138.015 252.481 139.797 252.821 144.330 252.709 C 147.724 252.626 153.691 253.095 157.592 253.753 C 164.548 254.925 218.375 256.572 245.000 256.426 C 259.462 256.348 263.839 255.155 268.474 250.030 L 270.449 247.847 271.233 250.673 C 271.665 252.228 271.724 256.650 271.365 260.500 M 179.250 232.463 C 181.313 232.758 184.688 233.292 186.750 233.648 C 188.813 234.005 208.582 234.362 230.682 234.442 L 270.864 234.588 269.075 238.544 C 266.743 243.702 262.715 247.609 258.191 249.102 C 253.906 250.516 194.395 249.752 160.918 247.853 C 141.668 246.761 140.159 246.534 137.621 244.351 C 135.595 242.607 134.760 240.771 134.325 237.095 C 133.782 232.509 133.904 232.138 136.121 231.655 C 138.954 231.039 173.875 231.693 179.250 232.463 "/></g>
<g fill="#8886CDFF" stroke="#8886CDFF">
<path d="M 247.030 161.128 C 243.528 163.258 240.090 166.849 240.033 168.436 C 240.015 168.950 239.062 170.369 237.916 171.589 C 236.771 172.809 235.360 175.538 234.782 177.653 C 233.173 183.545 232.654 194.054 233.910 195.310 C 234.509 195.909 235.000 197.155 235.000 198.078 C 235.000 199.000 235.678 200.318 236.507 201.006 C 237.777 202.060 238.186 201.764 239.105 199.128 C 239.705 197.408 240.571 196.000 241.030 196.000 C 241.490 196.000 242.133 195.155 242.461 194.122 C 244.094 188.979 252.451 183.010 258.027 183.004 C 262.406 182.999 265.106 184.841 268.985 190.478 C 270.645 192.892 272.855 195.137 273.895 195.467 C 274.934 195.797 276.332 197.387 277.000 199.000 C 280.139 206.578 283.995 204.554 284.008 195.321 C 284.013 192.120 283.267 186.350 282.351 182.500 C 281.434 178.650 280.282 173.789 279.790 171.697 C 279.297 169.606 278.056 167.056 277.031 166.031 C 276.005 165.005 275.370 163.963 275.619 163.714 C 275.868 163.465 274.368 162.415 272.286 161.381 C 266.552 158.532 251.545 158.382 247.030 161.128 "/></g>
<g fill="#8886CDFF" stroke="#8886CDFF">
<path d="M 155.000 160.658 C 147.136 162.768 142.786 167.328 136.798 179.737 C 131.622 190.463 129.513 199.963 131.970 201.481 C 133.640 202.513 138.000 200.035 138.000 198.054 C 138.000 195.893 142.671 190.908 148.002 187.380 C 151.900 184.801 153.196 184.501 160.427 184.510 C 171.759 184.525 176.375 186.977 177.582 193.623 C 177.918 195.477 181.184 201.996 182.041 202.525 C 183.246 203.270 186.000 200.113 186.000 197.988 C 186.000 196.959 186.503 195.807 187.118 195.427 C 188.618 194.500 187.848 188.890 184.616 177.187 C 182.237 168.576 178.815 164.332 171.601 161.046 C 166.413 158.683 162.684 158.596 155.000 160.658 "/></g>
</svg>
